<svg data-v-423bf9ae="" xmlns="http://www.w3.org/2000/svg" viewBox="0 0 2322.668180524547 193" class="fontAboveSlogan"><!----><!----><!----><g data-v-423bf9ae="" id="4b911f94-dd3b-4f63-946c-128b0b2ec125" fill="black" transform="matrix(11.070110545279999,0,0,11.070110545279999,740.2754843964449,-34.720847270643944)"><path d="M0.77 4.02L0.77 3.74L5.01 3.74Q6.08 3.74 6.97 4.06Q7.86 4.39 8.51 5.01Q9.17 5.63 9.53 6.60Q9.90 7.57 9.90 8.80L9.90 8.80Q9.90 10.27 9.28 11.42Q8.65 12.56 7.54 13.19Q6.43 13.82 5.00 13.82L5.00 13.82L0.77 13.82L0.77 13.54L2.03 13.05L2.03 4.51L0.77 4.02ZM4.92 4.47L4.92 4.47L3.36 4.47L3.36 13.10L4.96 13.10Q5.65 13.10 6.27 12.83Q6.90 12.56 7.39 12.06Q7.88 11.55 8.17 10.75Q8.46 9.94 8.46 8.93L8.46 8.93Q8.46 6.78 7.53 5.63Q6.61 4.47 4.92 4.47ZM16.54 12.87L17.81 13.22L17.81 13.47L16.32 13.93Q15.89 14.03 15.59 13.83Q15.29 13.64 15.29 13.17L15.29 13.17Q14.40 13.99 13.20 13.99L13.20 13.99Q12.21 13.99 11.72 13.48Q11.22 12.97 11.22 12.20L11.22 12.20Q11.22 11.61 11.48 11.17Q11.74 10.72 12.15 10.45Q12.55 10.19 13.11 10.01Q13.67 9.83 14.19 9.76Q14.71 9.69 15.29 9.68L15.29 9.68L15.29 9.02Q15.29 8.07 14.98 7.69Q14.68 7.31 13.99 7.31L13.99 7.31Q13.46 7.31 12.75 7.48L12.75 7.48L12.02 9.06L11.69 9.06L11.69 7.12Q12.30 6.90 12.99 6.77Q13.67 6.65 14.19 6.65L14.19 6.65Q15.32 6.65 15.93 7.11Q16.54 7.56 16.54 8.60L16.54 8.60L16.54 12.87ZM13.77 13.19L13.77 13.19Q14.16 13.19 14.57 13.01Q14.98 12.82 15.29 12.49L15.29 12.49L15.29 10.24Q13.92 10.30 13.20 10.80Q12.48 11.29 12.48 12.06L12.48 12.06Q12.48 12.65 12.86 12.92Q13.23 13.19 13.77 13.19ZM22.74 6.82L25.64 6.82L25.64 7.10L24.66 7.59L24.66 7.55L22.22 13.84L21.47 13.99L18.77 7.59L17.80 7.10L17.80 6.82L21.15 6.82L21.15 7.10L20.08 7.52L22.06 12.24L23.75 7.51L22.74 7.10L22.74 6.82ZM28.72 9.72L28.72 9.72L28.72 13.05L30.26 13.54L30.26 13.82L26.20 13.82L26.20 13.54L27.46 13.05L27.46 4.51L26.20 4.02L26.20 3.74L29.89 3.74Q30.78 3.74 31.47 3.94Q32.16 4.14 32.64 4.51Q33.11 4.88 33.36 5.40Q33.61 5.91 33.61 6.54L33.61 6.54Q33.61 7.19 33.38 7.78Q33.15 8.37 32.68 8.81Q32.20 9.26 31.46 9.52Q30.72 9.78 29.69 9.78L29.69 9.78Q29.23 9.78 28.72 9.72ZM30.09 4.46L30.09 4.46L28.72 4.46L28.72 8.99Q28.98 9.02 29.21 9.04Q29.44 9.06 29.65 9.06L29.65 9.06Q30.42 9.06 30.92 8.87Q31.41 8.67 31.70 8.35Q31.99 8.02 32.10 7.58Q32.22 7.14 32.22 6.65L32.22 6.65Q32.22 5.55 31.67 5.00Q31.12 4.46 30.09 4.46ZM40.04 12.87L41.31 13.22L41.31 13.47L39.83 13.93Q39.39 14.03 39.09 13.83Q38.79 13.64 38.79 13.17L38.79 13.17Q37.90 13.99 36.70 13.99L36.70 13.99Q35.71 13.99 35.22 13.48Q34.73 12.97 34.73 12.20L34.73 12.20Q34.73 11.61 34.99 11.17Q35.25 10.72 35.65 10.45Q36.05 10.19 36.61 10.01Q37.17 9.83 37.69 9.76Q38.21 9.69 38.79 9.68L38.79 9.68L38.79 9.02Q38.79 8.07 38.49 7.69Q38.19 7.31 37.49 7.31L37.49 7.31Q36.96 7.31 36.25 7.48L36.25 7.48L35.53 9.06L35.19 9.06L35.19 7.12Q35.81 6.90 36.49 6.77Q37.17 6.65 37.69 6.65L37.69 6.65Q38.82 6.65 39.43 7.11Q40.04 7.56 40.04 8.60L40.04 8.60L40.04 12.87ZM37.28 13.19L37.28 13.19Q37.67 13.19 38.08 13.01Q38.49 12.82 38.79 12.49L38.79 12.49L38.79 10.24Q37.42 10.30 36.70 10.80Q35.98 11.29 35.98 12.06L35.98 12.06Q35.98 12.65 36.36 12.92Q36.74 13.19 37.28 13.19ZM48.25 12.87L49.51 13.22L49.51 13.47L47.13 13.99L46.99 13.85L46.99 13.19Q46.17 13.99 45.06 13.99L45.06 13.99Q44.49 13.99 43.96 13.74Q43.44 13.48 43.03 13.02Q42.63 12.56 42.39 11.86Q42.14 11.16 42.14 10.32L42.14 10.32Q42.14 9.51 42.42 8.82Q42.70 8.13 43.17 7.66Q43.64 7.19 44.28 6.93Q44.93 6.67 45.64 6.67L45.64 6.67Q46.29 6.67 46.99 6.89L46.99 6.89L46.99 4.42L45.73 3.92L45.73 3.64L48.11 3.15L48.25 3.29L48.25 12.87ZM46.99 12.45L46.99 12.45L46.99 7.70Q46.35 7.36 45.79 7.36L45.79 7.36Q44.82 7.36 44.20 8.21Q43.57 9.06 43.57 10.32L43.57 10.32Q43.57 11.65 44.09 12.46Q44.60 13.26 45.53 13.26L45.53 13.26Q46.39 13.26 46.99 12.45ZM50.70 4.02L50.70 3.74L54.94 3.74Q56.01 3.74 56.90 4.06Q57.79 4.39 58.44 5.01Q59.10 5.63 59.46 6.60Q59.83 7.57 59.83 8.80L59.83 8.80Q59.83 10.27 59.21 11.42Q58.58 12.56 57.47 13.19Q56.36 13.82 54.93 13.82L54.93 13.82L50.70 13.82L50.70 13.54L51.96 13.05L51.96 4.51L50.70 4.02ZM54.84 4.47L54.84 4.47L53.29 4.47L53.29 13.10L54.89 13.10Q55.58 13.10 56.20 12.83Q56.83 12.56 57.32 12.06Q57.80 11.55 58.10 10.75Q58.39 9.94 58.39 8.93L58.39 8.93Q58.39 6.78 57.46 5.63Q56.54 4.47 54.84 4.47ZM67.19 10.17L66.99 10.36L62.57 10.36Q62.58 11.13 62.79 11.70Q63 12.26 63.36 12.58Q63.72 12.91 64.16 13.06Q64.59 13.21 65.11 13.21L65.11 13.21Q65.82 13.21 66.63 12.73L66.63 12.73L66.84 13.14Q66.27 13.64 65.69 13.82Q65.12 13.99 64.39 13.99L64.39 13.99Q63.75 13.99 63.16 13.72Q62.58 13.45 62.13 12.98Q61.69 12.50 61.42 11.81Q61.15 11.12 61.15 10.32L61.15 10.32Q61.15 9.56 61.35 8.94Q61.54 8.31 61.87 7.90Q62.19 7.48 62.61 7.19Q63.04 6.90 63.49 6.78Q63.94 6.65 64.40 6.65L64.40 6.65Q64.98 6.65 65.48 6.87Q65.97 7.08 66.36 7.50Q66.75 7.92 66.97 8.61Q67.19 9.29 67.19 10.17L67.19 10.17ZM64.43 7.31L64.43 7.31Q63.64 7.31 63.17 7.94Q62.71 8.56 62.60 9.64L62.60 9.64L65.86 9.64Q65.86 8.54 65.49 7.93Q65.12 7.31 64.43 7.31ZM72.48 6.82L75.38 6.82L75.38 7.10L74.40 7.59L74.40 7.55L71.96 13.84L71.21 13.99L68.51 7.59L67.54 7.10L67.54 6.82L70.89 6.82L70.89 7.10L69.82 7.52L71.80 12.24L73.49 7.51L72.48 7.10L72.48 6.82Z"></path></g><!----><!----><g data-v-423bf9ae="" id="f8548d3b-0d8b-44ca-a55f-173a4952846c" fill="black" transform="matrix(6.302521336710863,0,0,6.302521336710863,-9.201702402279352,110.05882763367615)"><path d="M4.37 3.78Q6.58 3.78 7.78 4.95Q8.97 6.12 8.97 8.33L8.97 8.33Q8.97 10.60 7.78 11.81Q6.58 13.02 4.37 13.02L4.37 13.02L1.46 13.02L1.46 3.78L4.37 3.78ZM4.42 12.38Q6.27 12.38 7.26 11.33Q8.25 10.29 8.25 8.33L8.25 8.33Q8.25 6.45 7.26 5.44Q6.27 4.42 4.42 4.42L4.42 4.42L2.16 4.42L2.16 12.38L4.42 12.38ZM24.36 13.02L23.20 10.12L18.77 10.12L17.63 13.02L16.88 13.02L20.58 3.78L21.41 3.78L25.10 13.02L24.36 13.02ZM19.04 9.48L22.95 9.48L21.34 5.45L21 4.47L20.99 4.47L20.65 5.42L19.04 9.48ZM39.90 3.78L36.34 13.02L35.52 13.02L31.95 3.78L32.70 3.78L35.43 10.93L35.92 12.36L36.41 10.93L39.16 3.78L39.90 3.78ZM49.38 3.78L49.38 13.02L48.68 13.02L48.68 3.78L49.38 3.78ZM62.20 3.78Q64.41 3.78 65.61 4.95Q66.81 6.12 66.81 8.33L66.81 8.33Q66.81 10.60 65.61 11.81Q64.41 13.02 62.20 13.02L62.20 13.02L59.29 13.02L59.29 3.78L62.20 3.78ZM62.26 12.38Q64.11 12.38 65.09 11.33Q66.08 10.29 66.08 8.33L66.08 8.33Q66.08 6.45 65.09 5.44Q64.11 4.42 62.26 4.42L62.26 4.42L59.99 4.42L59.99 12.38L62.26 12.38ZM90.59 3.78Q92.04 3.78 92.88 4.50Q93.73 5.22 93.73 6.48L93.73 6.48Q93.73 7.74 92.88 8.47Q92.04 9.20 90.59 9.20L90.59 9.20L88.23 9.20L88.23 13.02L87.53 13.02L87.53 3.78L90.59 3.78ZM90.51 8.54Q91.71 8.54 92.35 8.01Q92.99 7.48 92.99 6.48L92.99 6.48Q92.99 5.50 92.35 4.96Q91.71 4.42 90.51 4.42L90.51 4.42L88.23 4.42L88.23 8.54L90.51 8.54ZM108.44 13.02L107.28 10.12L102.86 10.12L101.71 13.02L100.97 13.02L104.66 3.78L105.49 3.78L109.19 13.02L108.44 13.02ZM103.12 9.48L107.03 9.48L105.42 5.45L105.08 4.47L105.07 4.47L104.73 5.42L103.12 9.48ZM120.82 3.78Q123.03 3.78 124.23 4.95Q125.43 6.12 125.43 8.33L125.43 8.33Q125.43 10.60 124.23 11.81Q123.03 13.02 120.82 13.02L120.82 13.02L117.91 13.02L117.91 3.78L120.82 3.78ZM120.88 12.38Q122.72 12.38 123.71 11.33Q124.70 10.29 124.70 8.33L124.70 8.33Q124.70 6.45 123.71 5.44Q122.72 4.42 120.88 4.42L120.88 4.42L118.61 4.42L118.61 12.38L120.88 12.38ZM135.46 3.78L135.46 13.02L134.76 13.02L134.76 3.78L135.46 3.78ZM146.08 12.38L151.62 12.38L151.62 13.02L145.38 13.02L145.38 3.78L146.08 3.78L146.08 12.38ZM161.08 12.38L166.63 12.38L166.63 13.02L160.38 13.02L160.38 3.78L161.08 3.78L161.08 12.38ZM181.68 13.02L180.52 10.12L176.09 10.12L174.94 13.02L174.20 13.02L177.90 3.78L178.72 3.78L182.42 13.02L181.68 13.02ZM176.36 9.48L180.26 9.48L178.65 5.45L178.32 4.47L178.30 4.47L177.97 5.42L176.36 9.48ZM205.00 3.78Q207.21 3.78 208.41 4.95Q209.61 6.12 209.61 8.33L209.61 8.33Q209.61 10.60 208.41 11.81Q207.21 13.02 205.00 13.02L205.00 13.02L202.09 13.02L202.09 3.78L205.00 3.78ZM205.06 12.38Q206.91 12.38 207.89 11.33Q208.88 10.29 208.88 8.33L208.88 8.33Q208.88 6.45 207.89 5.44Q206.91 4.42 205.06 4.42L205.06 4.42L202.79 4.42L202.79 12.38L205.06 12.38ZM219.65 12.38L225.48 12.38L225.48 13.02L218.95 13.02L218.95 3.78L225.26 3.78L225.26 4.42L219.65 4.42L219.65 7.99L224.08 7.99L224.08 8.65L219.65 8.65L219.65 12.38ZM241.33 3.78L237.78 13.02L236.95 13.02L233.38 3.78L234.14 3.78L236.87 10.93L237.36 12.36L237.85 10.93L240.59 3.78L241.33 3.78ZM250.81 12.38L256.65 12.38L256.65 13.02L250.11 13.02L250.11 3.78L256.42 3.78L256.42 4.42L250.81 4.42L250.81 7.99L255.25 7.99L255.25 8.65L250.81 8.65L250.81 12.38ZM266.38 12.38L271.92 12.38L271.92 13.02L265.68 13.02L265.68 3.78L266.38 3.78L266.38 12.38ZM283.81 3.64Q285.11 3.64 286.07 4.22Q287.03 4.80 287.55 5.87Q288.06 6.94 288.06 8.40L288.06 8.40Q288.06 9.86 287.55 10.93Q287.03 12.00 286.07 12.58Q285.11 13.16 283.81 13.16L283.81 13.16Q282.51 13.16 281.55 12.58Q280.59 12.00 280.07 10.93Q279.55 9.86 279.55 8.40L279.55 8.40Q279.55 6.94 280.07 5.87Q280.59 4.80 281.55 4.22Q282.51 3.64 283.81 3.64L283.81 3.64ZM283.81 4.28Q282.73 4.28 281.94 4.78Q281.15 5.28 280.72 6.21Q280.29 7.14 280.29 8.40L280.29 8.40Q280.29 9.66 280.72 10.59Q281.15 11.52 281.94 12.02Q282.73 12.52 283.81 12.52L283.81 12.52Q284.89 12.52 285.68 12.02Q286.48 11.52 286.91 10.59Q287.34 9.66 287.34 8.40L287.34 8.40Q287.34 7.14 286.91 6.21Q286.48 5.28 285.68 4.78Q284.89 4.28 283.81 4.28L283.81 4.28ZM300.45 3.78Q301.90 3.78 302.74 4.50Q303.59 5.22 303.59 6.48L303.59 6.48Q303.59 7.74 302.74 8.47Q301.90 9.20 300.45 9.20L300.45 9.20L298.09 9.20L298.09 13.02L297.39 13.02L297.39 3.78L300.45 3.78ZM300.37 8.54Q301.57 8.54 302.21 8.01Q302.85 7.48 302.85 6.48L302.85 6.48Q302.85 5.50 302.21 4.96Q301.57 4.42 300.37 4.42L300.37 4.42L298.09 4.42L298.09 8.54L300.37 8.54ZM321.20 3.78L321.20 13.02L320.53 13.02L320.53 6.13L320.61 4.45L320.60 4.45L317.23 13.02L316.58 13.02L313.21 4.45L313.19 4.45L313.28 6.13L313.28 13.02L312.61 13.02L312.61 3.78L313.66 3.78L316.44 10.78L316.90 12.19L316.92 12.19L317.37 10.79L320.15 3.78L321.20 3.78ZM331.81 12.38L337.65 12.38L337.65 13.02L331.11 13.02L331.11 3.78L337.43 3.78L337.43 4.42L331.81 4.42L331.81 7.99L336.25 7.99L336.25 8.65L331.81 8.65L331.81 12.38ZM353.78 3.78L353.78 13.02L352.91 13.02L348.01 5.77L347.33 4.54L347.31 4.54L347.35 5.70L347.35 13.02L346.68 13.02L346.68 3.78L347.56 3.78L352.45 11.02L353.15 12.26L353.12 11.10L353.12 3.78L353.78 3.78ZM369.99 3.78L369.99 4.42L366.62 4.42L366.62 13.02L365.92 13.02L365.92 4.42L362.54 4.42L362.54 3.78L369.99 3.78Z"></path></g></svg>